<svg aria-hidden="true" style="position: absolute; width: 0; height: 0; overflow: hidden;" version="1.1" xmlns="http://www.w3.org/2000/svg" xmlns:xlink="http://www.w3.org/1999/xlink">
<defs>
<symbol id="icon-shopping-basket" viewBox="0 0 32 28">
<path d="M30 12c1.109 0 2 0.891 2 2s-0.891 2-2 2h-0.234l-1.797 10.344c-0.172 0.953-1 1.656-1.969 1.656h-20c-0.969 0-1.797-0.703-1.969-1.656l-1.797-10.344h-0.234c-1.109 0-2-0.891-2-2s0.891-2 2-2h28zM7.578 24.5c0.547-0.047 0.969-0.531 0.922-1.078l-0.5-6.5c-0.047-0.547-0.531-0.969-1.078-0.922s-0.969 0.531-0.922 1.078l0.5 6.5c0.047 0.516 0.484 0.922 1 0.922h0.078zM14 23.5v-6.5c0-0.547-0.453-1-1-1s-1 0.453-1 1v6.5c0 0.547 0.453 1 1 1s1-0.453 1-1zM20 23.5v-6.5c0-0.547-0.453-1-1-1s-1 0.453-1 1v6.5c0 0.547 0.453 1 1 1s1-0.453 1-1zM25.5 23.578l0.5-6.5c0.047-0.547-0.375-1.031-0.922-1.078s-1.031 0.375-1.078 0.922l-0.5 6.5c-0.047 0.547 0.375 1.031 0.922 1.078h0.078c0.516 0 0.953-0.406 1-0.922zM7.438 4.562l-1.453 6.438h-2.063l1.578-6.891c0.406-1.828 2.016-3.109 3.891-3.109h2.609c0-0.547 0.453-1 1-1h6c0.547 0 1 0.453 1 1h2.609c1.875 0 3.484 1.281 3.891 3.109l1.578 6.891h-2.063l-1.453-6.438c-0.219-0.922-1.016-1.563-1.953-1.563h-2.609c0 0.547-0.453 1-1 1h-6c-0.547 0-1-0.453-1-1h-2.609c-0.938 0-1.734 0.641-1.953 1.563z"></path>
</symbol>
<symbol id="icon-user" viewBox="0 0 20 28">
<path d="M20 21.859c0 2.281-1.5 4.141-3.328 4.141h-13.344c-1.828 0-3.328-1.859-3.328-4.141 0-4.109 1.016-8.859 5.109-8.859 1.266 1.234 2.984 2 4.891 2s3.625-0.766 4.891-2c4.094 0 5.109 4.75 5.109 8.859zM16 8c0 3.313-2.688 6-6 6s-6-2.688-6-6 2.688-6 6-6 6 2.688 6 6z"></path>
</symbol>
<symbol id="icon-heart" viewBox="0 0 32 32">
<path d="M23.6 2c-3.363 0-6.258 2.736-7.599 5.594-1.342-2.858-4.237-5.594-7.601-5.594-4.637 0-8.4 3.764-8.4 8.401 0 9.433 9.516 11.906 16.001 21.232 6.13-9.268 15.999-12.1 15.999-21.232 0-4.637-3.763-8.401-8.4-8.401z"></path>
</symbol>
<symbol id="icon-search" viewBox="0 0 32 32">
<path d="M31.008 27.231l-7.58-6.447c-0.784-0.705-1.622-1.029-2.299-0.998 1.789-2.096 2.87-4.815 2.87-7.787 0-6.627-5.373-12-12-12s-12 5.373-12 12 5.373 12 12 12c2.972 0 5.691-1.081 7.787-2.87-0.031 0.677 0.293 1.515 0.998 2.299l6.447 7.58c1.104 1.226 2.907 1.33 4.007 0.23s0.997-2.903-0.23-4.007zM12 20c-4.418 0-8-3.582-8-8s3.582-8 8-8 8 3.582 8 8-3.582 8-8 8z"></path>
</symbol>
<symbol id="icon-odnoklassniki" viewBox="6 0 20 32">
<path d="M19.339 23.255c1.703-0.391 3.323-1.061 4.801-1.989 1.111-0.744 1.412-2.244 0.667-3.359-0.713-1.068-2.14-1.391-3.244-0.735-3.401 2.125-7.724 2.125-11.125 0-1.125-0.713-2.62-0.375-3.333 0.749 0 0.005 0 0.005 0 0.005-0.713 1.131-0.375 2.625 0.756 3.333l0.004 0.005c1.475 0.928 3.095 1.599 4.792 1.985l-4.62 4.619c-0.943 0.928-0.957 2.437-0.036 3.381l0.041 0.041c0.459 0.473 1.079 0.708 1.699 0.708s1.239-0.235 1.697-0.708l4.563-4.537 4.536 4.543c0.964 0.921 2.495 0.9 3.423-0.063 0.905-0.937 0.905-2.423 0-3.36zM16 16.516c4.563-0.005 8.255-3.699 8.26-8.256 0-4.552-3.708-8.26-8.26-8.26s-8.26 3.708-8.26 8.26c0.005 4.563 3.703 8.256 8.26 8.261zM16 4.844c1.885 0 3.416 1.531 3.416 3.416 0 1.891-1.531 3.417-3.416 3.423-1.885-0.005-3.416-1.532-3.421-3.423 0.005-1.885 1.536-3.416 3.421-3.421z"></path>
</symbol>
<symbol id="icon-telegram" viewBox="2 4 28 24">
<path d="M27.553 4.956l-23.64 9.116c-1.613 0.648-1.604 1.548-0.296 1.949l6.069 1.893 14.043-8.86c0.664-0.404 1.271-0.187 0.772 0.256l-11.377 10.269-0.419 6.256c0.613 0 0.884-0.281 1.228-0.613l2.948-2.867 6.132 4.529c1.131 0.623 1.943 0.303 2.224-1.047l4.025-18.971c0.412-1.652-0.631-2.4-1.709-1.912z"></path>
</symbol>
<symbol id="icon-tiktok" viewBox="0 0 32 32">
<path d="M16.707 0.027c1.747-0.027 3.48-0.013 5.213-0.027 0.107 2.040 0.84 4.12 2.333 5.56 1.493 1.48 3.6 2.16 5.653 2.387v5.373c-1.92-0.067-3.853-0.467-5.6-1.293-0.76-0.347-1.467-0.787-2.16-1.24-0.013 3.893 0.013 7.787-0.027 11.667-0.107 1.867-0.72 3.72-1.8 5.253-1.747 2.56-4.773 4.227-7.88 4.28-1.907 0.107-3.813-0.413-5.44-1.373-2.693-1.587-4.587-4.493-4.867-7.613-0.027-0.667-0.040-1.333-0.013-1.987 0.24-2.533 1.493-4.96 3.44-6.613 2.213-1.92 5.307-2.84 8.2-2.293 0.027 1.973-0.053 3.947-0.053 5.92-1.32-0.427-2.867-0.307-4.027 0.493-0.84 0.547-1.48 1.387-1.813 2.333-0.28 0.68-0.2 1.427-0.187 2.147 0.32 2.187 2.427 4.027 4.667 3.827 1.493-0.013 2.92-0.88 3.693-2.147 0.253-0.44 0.533-0.893 0.547-1.413 0.133-2.387 0.080-4.76 0.093-7.147 0.013-5.373-0.013-10.733 0.027-16.093z"></path>
</symbol>
<symbol id="icon-vkontakte" viewBox="0 7 32 18">
<path d="M27.541 18.46c1.061 1.036 2.182 2.011 3.134 3.152 0.421 0.507 0.819 1.030 1.123 1.619 0.432 0.836 0.041 1.757-0.709 1.807l-4.662-0.002c-1.202 0.1-2.162-0.384-2.968-1.206-0.645-0.657-1.243-1.357-1.864-2.037-0.254-0.278-0.521-0.539-0.839-0.746-0.636-0.413-1.189-0.287-1.552 0.377-0.37 0.675-0.454 1.423-0.491 2.175-0.050 1.098-0.382 1.386-1.484 1.437-2.357 0.111-4.593-0.245-6.671-1.434-1.832-1.048-3.252-2.528-4.488-4.203-2.407-3.262-4.251-6.845-5.907-10.53-0.373-0.83-0.1-1.276 0.816-1.291 1.521-0.030 3.041-0.027 4.564-0.002 0.618 0.009 1.027 0.364 1.266 0.947 0.823 2.023 1.83 3.948 3.093 5.732 0.337 0.475 0.68 0.95 1.168 1.284 0.541 0.37 0.952 0.248 1.207-0.355 0.161-0.382 0.232-0.793 0.268-1.202 0.12-1.407 0.136-2.812-0.075-4.214-0.13-0.875-0.623-1.442-1.496-1.607-0.446-0.084-0.379-0.25-0.164-0.505 0.375-0.439 0.727-0.712 1.43-0.712h5.269c0.829 0.164 1.014 0.536 1.127 1.371l0.005 5.852c-0.009 0.323 0.161 1.282 0.743 1.496 0.466 0.152 0.773-0.22 1.052-0.516 1.261-1.339 2.162-2.921 2.966-4.559 0.357-0.72 0.664-1.469 0.961-2.216 0.22-0.555 0.566-0.828 1.191-0.816l5.071 0.005c0.15 0 0.302 0.002 0.448 0.027 0.854 0.146 1.089 0.513 0.825 1.348-0.416 1.309-1.225 2.4-2.016 3.496-0.846 1.17-1.75 2.3-2.589 3.477-0.77 1.075-0.709 1.617 0.248 2.55v0z"></path>
</symbol>
<symbol id="icon-whatsapp" viewBox="0 0 32 32">
<path fill="#3de95d" style="fill: var(--color2, #3de95d)" d="M2.672 29.333l1.803-6.624c-1.136-1.916-1.808-4.223-1.808-6.688 0-0.008 0-0.015 0-0.023v0.001c0-7.364 5.969-13.333 13.333-13.333s13.333 5.969 13.333 13.333-5.969 13.333-13.333 13.333c-0.006 0-0.014 0-0.021 0-2.463 0-4.77-0.671-6.747-1.84l0.062 0.034-6.621 1.807zM11.188 9.744c-0.182 0.012-0.351 0.060-0.502 0.137l0.007-0.003c-0.15 0.086-0.279 0.187-0.392 0.303l-0.001 0.001c-0.16 0.151-0.251 0.281-0.348 0.408-0.47 0.607-0.753 1.379-0.753 2.217 0 0.007 0 0.014 0 0.021v-0.001c0.003 0.653 0.173 1.289 0.44 1.884 0.545 1.203 1.443 2.476 2.628 3.656 0.285 0.284 0.564 0.569 0.864 0.835 1.416 1.252 3.135 2.196 5.032 2.708l0.088 0.020 0.759 0.116c0.247 0.013 0.493-0.005 0.741-0.017 0.41-0.022 0.789-0.133 1.125-0.315l-0.014 0.007c0.221-0.117 0.325-0.176 0.511-0.293 0 0 0.057-0.037 0.167-0.12 0.18-0.133 0.291-0.228 0.44-0.384 0.111-0.115 0.207-0.249 0.28-0.403 0.104-0.217 0.208-0.632 0.251-0.977 0.032-0.264 0.023-0.408 0.019-0.497-0.005-0.143-0.124-0.291-0.253-0.353l-0.776-0.348s-1.16-0.505-1.868-0.828c-0.069-0.031-0.15-0.051-0.235-0.055l-0.001-0c-0.020-0.002-0.043-0.003-0.066-0.003-0.17 0-0.324 0.066-0.439 0.173l0-0v-0.003c-0.007 0-0.096 0.076-1.060 1.244-0.086 0.115-0.222 0.188-0.374 0.188-0.041 0-0.081-0.005-0.12-0.015l0.003 0.001c-0.1-0.027-0.185-0.057-0.267-0.093l0.012 0.005c-0.165-0.069-0.223-0.096-0.336-0.145l-0.007-0.003c-0.803-0.355-1.494-0.802-2.102-1.341l0.008 0.007c-0.168-0.147-0.324-0.307-0.484-0.461-0.515-0.494-0.964-1.048-1.339-1.655l-0.021-0.036-0.079-0.127c-0.053-0.079-0.099-0.169-0.133-0.265l-0.003-0.009c-0.051-0.196 0.081-0.353 0.081-0.353s0.324-0.355 0.475-0.547c0.114-0.144 0.229-0.306 0.337-0.474l0.014-0.024c0.157-0.253 0.207-0.513 0.124-0.715-0.373-0.912-0.76-1.82-1.157-2.721-0.079-0.179-0.312-0.307-0.524-0.332-0.072-0.008-0.144-0.016-0.216-0.021-0.067-0.004-0.145-0.006-0.224-0.006-0.11 0-0.22 0.004-0.328 0.012l0.015-0.001z"></path>
</symbol>
<symbol id="icon-youtube" viewBox="0 5 32 22">
<path d="M30.753 6.673c-1.155-1.373-3.288-1.933-7.361-1.933h-14.785c-4.166 0-6.335 0.596-7.486 2.058-1.122 1.425-1.122 3.525-1.122 6.432v5.54c0 5.631 1.331 8.49 8.608 8.49h14.785c3.532 0 5.489-0.494 6.755-1.706 1.298-1.243 1.852-3.272 1.852-6.784v-5.54c0-3.065-0.087-5.178-1.247-6.557zM20.544 16.765l-6.714 3.509c-0.15 0.078-0.314 0.117-0.478 0.117-0.186 0-0.371-0.050-0.535-0.149-0.309-0.187-0.497-0.522-0.497-0.883v-6.995c0-0.36 0.188-0.695 0.496-0.882s0.692-0.2 1.012-0.034l6.714 3.486c0.342 0.177 0.556 0.53 0.557 0.915s-0.213 0.738-0.554 0.916z"></path>
</symbol>
<symbol id="icon-paypal" viewBox="2 12 30 8">

<path fill="#ffffff" style="fill: var(--color2, #ffffff)" d="M6.966 12.713c-0.342-0.235-0.789-0.353-1.34-0.353h-2.134c-0.169 0-0.262 0.085-0.28 0.253l-0.867 5.441c-0.009 0.053 0.004 0.102 0.040 0.147s0.080 0.067 0.133 0.067h1.014c0.178 0 0.275-0.084 0.293-0.253l0.24-1.467c0.009-0.071 0.040-0.129 0.093-0.173s0.12-0.073 0.2-0.087c0.080-0.013 0.155-0.020 0.227-0.020s0.155 0.004 0.253 0.013c0.098 0.009 0.16 0.013 0.187 0.013 0.765 0 1.365-0.215 1.8-0.647s0.654-1.029 0.654-1.794c0-0.524-0.171-0.905-0.513-1.14zM5.866 14.347c-0.045 0.311-0.16 0.516-0.347 0.613s-0.453 0.147-0.8 0.147l-0.44 0.013 0.227-1.427c0.018-0.098 0.075-0.147 0.173-0.147h0.253c0.355 0 0.613 0.051 0.773 0.153s0.213 0.318 0.16 0.647z"></path>
<path fill="#009cde" style="fill: var(--color3, #009cde)" d="M29.484 12.36h-0.987c-0.098 0-0.156 0.049-0.173 0.147l-0.867 5.548-0.013 0.027c0 0.045 0.018 0.087 0.053 0.127s0.080 0.060 0.133 0.060h0.88c0.169 0 0.262-0.084 0.28-0.253l0.867-5.454v-0.013c-0-0.124-0.058-0.187-0.173-0.187z"></path>
<path fill="#ffffff" style="fill: var(--color2, #ffffff)" d="M17.562 14.507c0-0.044-0.018-0.087-0.053-0.127s-0.076-0.060-0.12-0.060h-1.027c-0.098 0-0.178 0.045-0.24 0.133l-1.414 2.080-0.587-2c-0.045-0.142-0.142-0.213-0.293-0.213h-1c-0.045 0-0.085 0.020-0.12 0.060s-0.053 0.082-0.053 0.127c0 0.018 0.087 0.28 0.26 0.787s0.36 1.054 0.56 1.64c0.2 0.587 0.304 0.898 0.313 0.933-0.729 0.996-1.094 1.529-1.094 1.6 0 0.116 0.058 0.173 0.173 0.173h1.027c0.098 0 0.178-0.044 0.24-0.133l3.401-4.908c0.018-0.018 0.027-0.049 0.027-0.093z"></path>
<path fill="#009cde" style="fill: var(--color3, #009cde)" d="M27.123 14.32h-1.014c-0.125 0-0.2 0.147-0.227 0.44-0.231-0.355-0.653-0.534-1.267-0.534-0.64 0-1.185 0.24-1.634 0.72s-0.673 1.045-0.673 1.694c0 0.525 0.153 0.942 0.46 1.253s0.718 0.467 1.234 0.467c0.258 0 0.52-0.053 0.787-0.16s0.476-0.249 0.627-0.427c0 0.009-0.009 0.049-0.027 0.12s-0.027 0.125-0.027 0.16c0 0.142 0.058 0.213 0.173 0.213h0.92c0.169 0 0.267-0.084 0.293-0.253l0.547-3.481c0.009-0.053-0.005-0.102-0.040-0.147s-0.080-0.067-0.133-0.067zM25.383 16.947c-0.227 0.222-0.5 0.333-0.82 0.333-0.258 0-0.467-0.071-0.627-0.213s-0.24-0.338-0.24-0.587c0-0.329 0.111-0.607 0.333-0.833s0.498-0.34 0.827-0.34c0.249 0 0.455 0.073 0.62 0.22s0.247 0.349 0.247 0.607c-0 0.32-0.113 0.591-0.34 0.813z"></path>
<path fill="#ffffff" style="fill: var(--color2, #ffffff)" d="M11.974 14.32h-1.014c-0.125 0-0.2 0.147-0.227 0.44-0.24-0.355-0.662-0.534-1.267-0.534-0.64 0-1.185 0.24-1.634 0.72s-0.673 1.045-0.673 1.694c0 0.525 0.153 0.942 0.46 1.253s0.718 0.467 1.234 0.467c0.249 0 0.507-0.053 0.773-0.16s0.48-0.249 0.64-0.427c-0.036 0.107-0.053 0.2-0.053 0.28 0 0.142 0.058 0.213 0.173 0.213h0.92c0.169 0 0.267-0.084 0.293-0.253l0.547-3.481c0.009-0.053-0.005-0.102-0.040-0.147s-0.080-0.067-0.133-0.067zM10.234 16.954c-0.227 0.218-0.505 0.327-0.833 0.327-0.258 0-0.465-0.071-0.62-0.213s-0.233-0.338-0.233-0.587c0-0.329 0.111-0.607 0.333-0.833s0.498-0.34 0.827-0.34c0.249 0 0.456 0.073 0.62 0.22s0.247 0.349 0.247 0.607c0 0.329-0.113 0.602-0.34 0.82z"></path>
<path fill="#009cde" style="fill: var(--color3, #009cde)" d="M22.116 12.713c-0.342-0.235-0.789-0.353-1.34-0.353h-2.12c-0.178 0-0.276 0.085-0.293 0.253l-0.867 5.441c-0.009 0.053 0.004 0.102 0.040 0.147s0.080 0.067 0.133 0.067h1.093c0.107 0 0.178-0.058 0.213-0.173l0.24-1.547c0.009-0.071 0.040-0.129 0.093-0.173s0.12-0.073 0.2-0.087c0.080-0.013 0.155-0.020 0.227-0.020s0.155 0.004 0.253 0.013c0.098 0.009 0.16 0.013 0.187 0.013 0.765 0 1.365-0.215 1.8-0.647s0.653-1.029 0.653-1.794c0-0.524-0.171-0.905-0.513-1.14zM20.749 14.907c-0.196 0.133-0.489 0.2-0.88 0.2l-0.427 0.013 0.227-1.427c0.018-0.098 0.075-0.147 0.173-0.147h0.24c0.196 0 0.351 0.009 0.467 0.027s0.227 0.073 0.333 0.167c0.107 0.093 0.16 0.229 0.16 0.407 0 0.373-0.098 0.627-0.293 0.76z"></path>
</symbol>
<symbol id="icon-visa" viewBox="5 10 32 12">
<path fill="#ffffff" style="fill: var(--color1, #ffffff)" d="M22.992 13.984c-0.016 1.552 1.384 2.424 2.44 2.936 1.088 0.528 1.456 0.872 1.448 1.344-0.008 0.728-0.864 1.040-1.672 1.056-1.4 0.024-2.216-0.376-2.864-0.68l-0.504 2.368c0.648 0.296 1.856 0.56 3.104 0.576 2.936 0 4.848-1.448 4.864-3.696 0.008-2.848-3.944-3.008-3.912-4.28 0.008-0.384 0.376-0.8 1.184-0.904 0.4-0.056 1.504-0.096 2.752 0.48l0.488-2.288c-0.672-0.248-1.536-0.48-2.616-0.48-2.752 0-4.696 1.472-4.712 3.568zM35.040 10.616c-0.536 0-0.984 0.312-1.192 0.792l-4.192 10h2.928l0.584-1.608h3.584l0.336 1.608h2.592l-2.256-10.792h-2.384zM35.448 13.536l0.848 4.056h-2.32l1.472-4.056zM19.44 10.616l-2.312 10.792h2.792l2.312-10.792h-2.792zM15.312 10.616l-2.912 7.352-1.176-6.248c-0.136-0.696-0.68-1.104-1.288-1.104h-4.752l-0.064 0.312c0.976 0.208 2.080 0.552 2.752 0.92 0.408 0.224 0.528 0.416 0.664 0.952l2.224 8.616h2.952l4.528-10.8h-2.928z"></path>
</symbol>
<symbol id="icon-mastercard" viewBox="0 3 31 22">
<path fill="#231f20" style="fill: var(--color6, #231f20)" d="M31.369 28.11v0.064h0.060c0 0 0.001 0 0.001 0 0.011 0 0.022-0.003 0.031-0.008l-0 0c0.007-0.005 0.012-0.014 0.012-0.023 0-0 0-0.001-0-0.001v0c0-0 0-0.001 0-0.001 0-0.009-0.005-0.018-0.012-0.023l-0-0c-0.008-0.005-0.019-0.008-0.030-0.008-0.001 0-0.002 0-0.003 0h-0.060zM31.43 28.065c0.002-0 0.004-0 0.007-0 0.024 0 0.047 0.008 0.065 0.021l-0-0c0.015 0.013 0.025 0.032 0.025 0.053 0 0.001-0 0.002-0 0.004v-0c0 0.001 0 0.002 0 0.003 0 0.019-0.008 0.035-0.020 0.047l-0 0c-0.015 0.013-0.035 0.022-0.057 0.024l-0 0 0.080 0.091h-0.062l-0.074-0.091h-0.024v0.091h-0.052v-0.242h0.112zM31.414 28.391c0.001 0 0.001 0 0.002 0 0.028 0 0.054-0.006 0.078-0.017l-0.001 0c0.025-0.011 0.046-0.025 0.064-0.043v0c0.018-0.018 0.033-0.039 0.043-0.063l0-0.001c0.010-0.023 0.016-0.051 0.016-0.079s-0.006-0.056-0.016-0.081l0 0.001c-0.011-0.025-0.026-0.046-0.043-0.064v0c-0.018-0.018-0.039-0.032-0.063-0.043l-0.001-0.001c-0.023-0.010-0.049-0.015-0.076-0.015-0.001 0-0.002 0-0.002 0h0c-0.001 0-0.001 0-0.002 0-0.028 0-0.055 0.006-0.079 0.016l0.001-0c-0.025 0.011-0.047 0.025-0.065 0.043l0-0c-0.036 0.037-0.059 0.088-0.059 0.144 0 0.029 0.006 0.056 0.017 0.081l-0-0.001c0.010 0.025 0.025 0.046 0.043 0.064l0 0c0.018 0.018 0.040 0.033 0.064 0.043l0.001 0c0.023 0.010 0.050 0.016 0.078 0.016 0.001 0 0.001 0 0.002 0h-0zM31.414 27.928c0 0 0 0 0 0 0.073 0 0.139 0.029 0.188 0.077l-0-0c0.024 0.023 0.043 0.051 0.056 0.081l0.001 0.002c0.013 0.030 0.021 0.065 0.021 0.101s-0.008 0.071-0.021 0.103l0.001-0.002c-0.014 0.032-0.033 0.060-0.057 0.083v0c-0.024 0.023-0.052 0.042-0.082 0.055l-0.002 0.001c-0.030 0.013-0.065 0.021-0.102 0.021-0.001 0-0.001 0-0.002 0h0c-0.001 0-0.001 0-0.002 0-0.037 0-0.073-0.008-0.105-0.021l0.002 0.001c-0.033-0.014-0.061-0.033-0.085-0.056l0 0c-0.023-0.024-0.042-0.052-0.055-0.084l-0.001-0.002c-0.013-0.030-0.021-0.065-0.021-0.101s0.008-0.071 0.021-0.103l-0.001 0.002c0.014-0.032 0.033-0.060 0.057-0.083l0-0c0.024-0.024 0.052-0.043 0.083-0.055l0.002-0.001c0.030-0.013 0.066-0.021 0.103-0.021 0.001 0 0.001 0 0.002 0h-0zM6.915 26.994c0-0.462 0.302-0.841 0.797-0.841 0.472 0 0.791 0.363 0.791 0.841s-0.319 0.841-0.791 0.841c-0.494 0-0.797-0.379-0.797-0.841zM9.041 26.994v-1.314h-0.571v0.32c-0.181-0.236-0.456-0.385-0.829-0.385-0.736 0-1.314 0.577-1.314 1.379s0.577 1.379 1.314 1.379c0.373 0 0.648-0.148 0.829-0.385v0.319h0.57v-1.314zM28.335 26.994c0-0.462 0.302-0.841 0.797-0.841 0.473 0 0.791 0.363 0.791 0.841s-0.318 0.841-0.791 0.841c-0.494 0-0.797-0.379-0.797-0.841zM30.462 26.994v-2.368h-0.572v1.374c-0.181-0.236-0.456-0.385-0.829-0.385-0.736 0-1.314 0.577-1.314 1.379s0.577 1.379 1.314 1.379c0.374 0 0.648-0.148 0.829-0.385v0.319h0.572v-1.314zM16.128 26.126c0.368 0 0.604 0.231 0.665 0.637h-1.363c0.061-0.379 0.291-0.637 0.698-0.637zM16.14 25.614c-0.77 0-1.308 0.56-1.308 1.379 0 0.835 0.56 1.379 1.346 1.379 0.396 0 0.758-0.099 1.076-0.368l-0.28-0.423c-0.22 0.176-0.5 0.275-0.764 0.275-0.368 0-0.703-0.17-0.785-0.643h1.95c0.006-0.071 0.011-0.143 0.011-0.22-0.006-0.819-0.512-1.379-1.247-1.379zM23.034 26.993c0-0.462 0.302-0.841 0.797-0.841 0.472 0 0.791 0.363 0.791 0.841s-0.319 0.841-0.791 0.841c-0.494 0-0.797-0.379-0.797-0.841zM25.16 26.993v-1.313h-0.571v0.32c-0.182-0.236-0.456-0.385-0.829-0.385-0.736 0-1.314 0.577-1.314 1.379s0.577 1.379 1.314 1.379c0.374 0 0.648-0.148 0.829-0.385v0.319h0.571v-1.314zM19.809 26.993c0 0.797 0.555 1.379 1.401 1.379 0.396 0 0.659-0.088 0.944-0.313l-0.274-0.462c-0.214 0.154-0.44 0.236-0.688 0.236-0.456-0.006-0.791-0.335-0.791-0.841s0.335-0.835 0.791-0.841c0.248 0 0.473 0.082 0.688 0.236l0.274-0.462c-0.285-0.225-0.549-0.313-0.944-0.313-0.846 0-1.401 0.582-1.401 1.379zM27.17 25.614c-0.329 0-0.544 0.154-0.692 0.385v-0.318h-0.566v2.626h0.572v-1.472c0-0.435 0.187-0.676 0.56-0.676 0.004-0 0.009-0 0.013-0 0.124 0 0.242 0.024 0.35 0.068l-0.006-0.002 0.176-0.538c-0.126-0.050-0.291-0.072-0.407-0.072zM11.864 25.889c-0.275-0.181-0.653-0.275-1.071-0.275-0.665 0-1.094 0.319-1.094 0.841 0 0.428 0.319 0.692 0.906 0.775l0.27 0.038c0.313 0.044 0.461 0.126 0.461 0.275 0 0.203-0.208 0.319-0.599 0.319-0.396 0-0.681-0.126-0.873-0.275l-0.268 0.445c0.313 0.231 0.709 0.341 1.137 0.341 0.758 0 1.198-0.357 1.198-0.857 0-0.462-0.346-0.703-0.917-0.785l-0.269-0.039c-0.247-0.032-0.445-0.082-0.445-0.258 0-0.192 0.187-0.308 0.5-0.308 0.335 0 0.66 0.126 0.819 0.225l0.247-0.462zM19.232 25.615c-0.329 0-0.544 0.154-0.692 0.385v-0.319h-0.566v2.626h0.571v-1.472c0-0.435 0.187-0.676 0.56-0.676 0.004-0 0.009-0 0.013-0 0.124 0 0.242 0.024 0.35 0.068l-0.006-0.002 0.176-0.538c-0.126-0.050-0.291-0.072-0.407-0.072zM14.359 25.68h-0.934v-0.797h-0.577v0.797h-0.533v0.522h0.533v1.198c0 0.609 0.236 0.972 0.912 0.972 0.248 0 0.533-0.077 0.714-0.203l-0.165-0.489c-0.17 0.099-0.357 0.148-0.506 0.148-0.285 0-0.379-0.176-0.379-0.44v-1.187h0.934zM5.822 28.307v-1.648c0-0.621-0.396-1.038-1.033-1.044-0.335-0.006-0.681 0.099-0.923 0.467-0.181-0.291-0.467-0.467-0.868-0.467-0.28 0-0.555 0.082-0.769 0.39v-0.325h-0.572v2.626h0.576v-1.456c0-0.456 0.253-0.698 0.643-0.698 0.379 0 0.571 0.247 0.571 0.692v1.461h0.577v-1.456c0-0.456 0.264-0.698 0.643-0.698 0.39 0 0.576 0.247 0.576 0.692v1.461z"></path>
<path fill="#f79410" style="fill: var(--color7, #f79410)" d="M31.695 19.572v-0.384h-0.1l-0.116 0.264-0.115-0.264h-0.1v0.384h0.071v-0.289l0.108 0.25h0.074l0.108-0.25v0.29h0.070zM31.061 19.572v-0.318h0.128v-0.065h-0.327v0.065h0.128v0.318h0.070z"></path>
<path fill="#ff5f00" style="fill: var(--color8, #ff5f00)" d="M20.329 21.218h-8.654v-15.552h8.654z"></path>
<path fill="#eb001b" style="fill: var(--color9, #eb001b)" d="M12.224 13.443c0-3.155 1.477-5.965 3.777-7.776-1.66-1.318-3.786-2.115-6.097-2.115-0.005 0-0.010 0-0.015 0h0.001c-5.462 0-9.889 4.428-9.889 9.891s4.428 9.891 9.889 9.891c0.004 0 0.010 0 0.015 0 2.312 0 4.437-0.797 6.118-2.13l-0.020 0.016c-2.3-1.811-3.777-4.621-3.777-7.776z"></path>
<path fill="#f79e1b" style="fill: var(--color10, #f79e1b)" d="M32.004 13.443c0 5.463-4.428 9.891-9.889 9.891-0.004 0-0.009 0-0.014 0-2.312 0-4.438-0.797-6.119-2.13l0.020 0.016c2.301-1.811 3.778-4.621 3.778-7.776s-1.477-5.965-3.778-7.776c1.66-1.318 3.786-2.115 6.098-2.115 0.005 0 0.010 0 0.015 0h-0.001c5.462 0 9.889 4.428 9.889 9.891z"></path>
</symbol>
<symbol id="icon-mir" viewBox="0 0 113 32">
<path fill="#4db45e" style="fill: var(--color1, #4db45e)" d="M30.449 0.007v0.014c-0.014 0-4.415-0.014-5.589 4.192-1.076 3.856-4.108 14.498-4.192 14.791h-0.838s-3.102-10.879-4.192-14.805c-1.174-4.205-5.589-4.192-5.589-4.192h-10.050v31.986h10.055v-18.997h0.838l5.868 18.997h6.981l5.868-18.983h0.838v18.983h10.055v-31.986h-10.055zM67.181 0.007s-2.948 0.265-4.331 3.353l-7.121 15.644h-0.838v-18.997h-10.055v31.986h9.496s3.088-0.279 4.471-3.353l6.981-15.644h0.838v18.997h10.055v-31.986h-9.496zM81.148 14.533v17.46h10.055v-10.195h10.893c4.75 0 8.77-3.032 10.265-7.261l-31.213-0.005z"></path>
<path fill="#5399f6" style="fill: var(--color2, #5399f6)" d="M102.101 0.007h-22.364c1.118 6.092 5.686 10.977 11.592 12.57 1.26 0.355 2.707 0.559 4.202 0.559 0.001 0 0.002 0 0.003 0h17.236c0.154-0.727 0.224-1.467 0.224-2.235 0-6.017-4.876-10.893-10.893-10.893z"></path>
</symbol>
<symbol id="icon-phone" viewBox="0 0 32 32">
<path d="M24.438 30c-1.22 0-2.934-0.441-5.5-1.875-3.121-1.75-5.534-3.366-8.638-6.461-2.992-2.991-4.449-4.927-6.487-8.636-2.303-4.188-1.91-6.383-1.471-7.321 0.522-1.121 1.294-1.792 2.291-2.458 0.512-0.341 1.101-0.659 1.718-0.923l0.072-0.027c0.063-0.027 0.121-0.053 0.173-0.076 0.309-0.139 0.778-0.35 1.372-0.125 0.396 0.149 0.75 0.453 1.304 1 1.136 1.12 2.688 3.614 3.26 4.839 0.384 0.826 0.639 1.371 0.639 1.982 0 0.716-0.36 1.268-0.797 1.863-0.082 0.112-0.163 0.219-0.242 0.322-0.476 0.625-0.58 0.806-0.511 1.128 0.139 0.648 1.179 2.578 2.887 4.282s3.582 2.678 4.232 2.817c0.336 0.072 0.521-0.037 1.166-0.529 0.093-0.071 0.188-0.144 0.287-0.217 0.666-0.496 1.192-0.846 1.891-0.846h0.004c0.608 0 1.129 0.264 1.991 0.699 1.125 0.567 3.694 2.099 4.821 3.236 0.548 0.552 0.854 0.905 1.003 1.301 0.225 0.596 0.013 1.063-0.125 1.375-0.023 0.052-0.049 0.109-0.076 0.172-0.293 0.688-0.613 1.275-0.981 1.826l0.025-0.040c-0.664 0.994-1.337 1.763-2.461 2.286-0.527 0.255-1.147 0.405-1.802 0.405-0.016 0-0.032-0-0.048-0l0.002 0z"></path>
</symbol>
<symbol id="icon-mail" viewBox="0 0 32 32">
<path d="M32 26.791v-21.488l-10.943 10.982z"></path>
<path d="M0 5.302v21.49l10.943-10.506z"></path>
<path d="M0.74 4.533l11.201 11.243c0.065 0.027 0.251 0.221 0.276 0.277l3.169 3.18c0.339 0.315 0.892 0.315 1.244-0.013l3.153-3.164c0.025-0.056 0.213-0.252 0.278-0.279l11.201-11.243h-30.522z"></path>
<path d="M20.304 17.042l-2.933 2.944c-0.389 0.363-0.884 0.543-1.376 0.543-0.487 0-0.972-0.177-1.351-0.53l-2.947-2.958-10.86 10.425h30.326l-10.859-10.425z"></path>
</symbol>
</defs>
</svg>
