<svg aria-hidden="true" style="position: absolute; width: 0; height: 0; overflow: hidden;" version="1.1" xmlns="http://www.w3.org/2000/svg" xmlns:xlink="http://www.w3.org/1999/xlink">
<defs>
<symbol id="icon-paypal" viewBox="0 0 32 32">
<path fill="#fff" style="fill: var(--color1, #fff)" d="M29.744 5.952h-27.487c-1.244 0-2.256 0.99-2.256 2.206v15.684c0 1.216 1.012 2.206 2.256 2.206h27.487c1.244 0 2.256-0.99 2.256-2.206v-15.684c0-1.216-1.012-2.206-2.256-2.206z"></path>
<path fill="#003087" style="fill: var(--color2, #003087)" d="M6.966 12.713c-0.342-0.235-0.789-0.353-1.34-0.353h-2.134c-0.169 0-0.262 0.085-0.28 0.253l-0.867 5.441c-0.009 0.053 0.004 0.102 0.040 0.147s0.080 0.067 0.133 0.067h1.014c0.178 0 0.275-0.084 0.293-0.253l0.24-1.467c0.009-0.071 0.040-0.129 0.093-0.173s0.12-0.073 0.2-0.087c0.080-0.013 0.155-0.020 0.227-0.020s0.155 0.004 0.253 0.013c0.098 0.009 0.16 0.013 0.187 0.013 0.765 0 1.365-0.215 1.8-0.647s0.654-1.029 0.654-1.794c0-0.524-0.171-0.905-0.513-1.14zM5.866 14.347c-0.045 0.311-0.16 0.516-0.347 0.613s-0.453 0.147-0.8 0.147l-0.44 0.013 0.227-1.427c0.018-0.098 0.075-0.147 0.173-0.147h0.253c0.355 0 0.613 0.051 0.773 0.153s0.213 0.318 0.16 0.647z"></path>
<path fill="#009cde" style="fill: var(--color3, #009cde)" d="M29.484 12.36h-0.987c-0.098 0-0.156 0.049-0.173 0.147l-0.867 5.548-0.013 0.027c0 0.045 0.018 0.087 0.053 0.127s0.080 0.060 0.133 0.060h0.88c0.169 0 0.262-0.084 0.28-0.253l0.867-5.454v-0.013c-0-0.124-0.058-0.187-0.173-0.187z"></path>
<path fill="#003087" style="fill: var(--color2, #003087)" d="M17.562 14.507c0-0.044-0.018-0.087-0.053-0.127s-0.076-0.060-0.12-0.060h-1.027c-0.098 0-0.178 0.045-0.24 0.133l-1.414 2.080-0.587-2c-0.045-0.142-0.142-0.213-0.293-0.213h-1c-0.045 0-0.085 0.020-0.12 0.060s-0.053 0.082-0.053 0.127c0 0.018 0.087 0.28 0.26 0.787s0.36 1.054 0.56 1.64c0.2 0.587 0.304 0.898 0.313 0.933-0.729 0.996-1.094 1.529-1.094 1.6 0 0.116 0.058 0.173 0.173 0.173h1.027c0.098 0 0.178-0.044 0.24-0.133l3.401-4.908c0.018-0.018 0.027-0.049 0.027-0.093z"></path>
<path fill="#009cde" style="fill: var(--color3, #009cde)" d="M27.123 14.32h-1.014c-0.125 0-0.2 0.147-0.227 0.44-0.231-0.355-0.653-0.534-1.267-0.534-0.64 0-1.185 0.24-1.634 0.72s-0.673 1.045-0.673 1.694c0 0.525 0.153 0.942 0.46 1.253s0.718 0.467 1.234 0.467c0.258 0 0.52-0.053 0.787-0.16s0.476-0.249 0.627-0.427c0 0.009-0.009 0.049-0.027 0.12s-0.027 0.125-0.027 0.16c0 0.142 0.058 0.213 0.173 0.213h0.92c0.169 0 0.267-0.084 0.293-0.253l0.547-3.481c0.009-0.053-0.005-0.102-0.040-0.147s-0.080-0.067-0.133-0.067zM25.383 16.947c-0.227 0.222-0.5 0.333-0.82 0.333-0.258 0-0.467-0.071-0.627-0.213s-0.24-0.338-0.24-0.587c0-0.329 0.111-0.607 0.333-0.833s0.498-0.34 0.827-0.34c0.249 0 0.455 0.073 0.62 0.22s0.247 0.349 0.247 0.607c-0 0.32-0.113 0.591-0.34 0.813z"></path>
<path fill="#003087" style="fill: var(--color2, #003087)" d="M11.974 14.32h-1.014c-0.125 0-0.2 0.147-0.227 0.44-0.24-0.355-0.662-0.534-1.267-0.534-0.64 0-1.185 0.24-1.634 0.72s-0.673 1.045-0.673 1.694c0 0.525 0.153 0.942 0.46 1.253s0.718 0.467 1.234 0.467c0.249 0 0.507-0.053 0.773-0.16s0.48-0.249 0.64-0.427c-0.036 0.107-0.053 0.2-0.053 0.28 0 0.142 0.058 0.213 0.173 0.213h0.92c0.169 0 0.267-0.084 0.293-0.253l0.547-3.481c0.009-0.053-0.005-0.102-0.040-0.147s-0.080-0.067-0.133-0.067zM10.234 16.954c-0.227 0.218-0.505 0.327-0.833 0.327-0.258 0-0.465-0.071-0.62-0.213s-0.233-0.338-0.233-0.587c0-0.329 0.111-0.607 0.333-0.833s0.498-0.34 0.827-0.34c0.249 0 0.456 0.073 0.62 0.22s0.247 0.349 0.247 0.607c0 0.329-0.113 0.602-0.34 0.82z"></path>
<path fill="#009cde" style="fill: var(--color3, #009cde)" d="M22.116 12.713c-0.342-0.235-0.789-0.353-1.34-0.353h-2.12c-0.178 0-0.276 0.085-0.293 0.253l-0.867 5.441c-0.009 0.053 0.004 0.102 0.040 0.147s0.080 0.067 0.133 0.067h1.093c0.107 0 0.178-0.058 0.213-0.173l0.24-1.547c0.009-0.071 0.040-0.129 0.093-0.173s0.12-0.073 0.2-0.087c0.080-0.013 0.155-0.020 0.227-0.020s0.155 0.004 0.253 0.013c0.098 0.009 0.16 0.013 0.187 0.013 0.765 0 1.365-0.215 1.8-0.647s0.653-1.029 0.653-1.794c0-0.524-0.171-0.905-0.513-1.14zM20.749 14.907c-0.196 0.133-0.489 0.2-0.88 0.2l-0.427 0.013 0.227-1.427c0.018-0.098 0.075-0.147 0.173-0.147h0.24c0.196 0 0.351 0.009 0.467 0.027s0.227 0.073 0.333 0.167c0.107 0.093 0.16 0.229 0.16 0.407 0 0.373-0.098 0.627-0.293 0.76z"></path>
</symbol>
<symbol id="icon-visa" viewBox="0 0 32 32">
<path fill="#fff" style="fill: var(--color1, #fff)" d="M0 0h32v32h-32v-32z"></path>
<path fill="#e7a83a" style="fill: var(--color4, #e7a83a)" d="M3.525 24.521c5.956-2.552 14.313-4.866 25.381-2.549l0.116-2.807c-11.677-1.275-20.056 2.444-25.497 5.080v0.277z"></path>
<path fill="#1d5b99" style="fill: var(--color5, #1d5b99)" d="M9.753 17.118l2.581-8.511h2.303l-2.582 8.511h-2.303zM8.724 8.609l-2.072 3.608c-0.527 0.945-0.836 1.422-0.984 2.019h-0.032c0.037-0.757-0.069-1.686-0.079-2.212l-0.229-3.416h-3.877l-0.040 0.229c0.996 0 1.587 0.5 1.749 1.524l0.756 6.756h2.386l4.825-8.509h-2.404zM26.635 17.118l-0.064-1.266-2.876-0.002-0.588 1.268h-2.5l4.534-8.495h3.069l0.768 8.495-2.343 0zM26.371 12.098c-0.026-0.629-0.047-1.483-0.004-1.999h-0.034c-0.14 0.422-0.742 1.691-1.007 2.315l-0.857 1.866h2.019l-0.117-2.182zM17.056 17.36c-1.626 0-2.705-0.516-3.476-0.976l1.097-1.676c0.692 0.387 1.235 0.833 2.484 0.833 0.402 0 0.789-0.104 1.009-0.485 0.32-0.554-0.074-0.851-0.974-1.361l-0.444-0.289c-1.334-0.911-1.911-1.777-1.283-3.288 0.402-0.967 1.461-1.699 3.21-1.699 1.206 0 2.336 0.521 2.994 1.031l-1.261 1.479c-0.643-0.52-1.175-0.783-1.785-0.783-0.486 0-0.855 0.187-0.983 0.44-0.24 0.475 0.078 0.799 0.778 1.234l0.528 0.336c1.619 1.021 2.005 2.092 1.599 3.094-0.698 1.723-2.065 2.108-3.494 2.108zM29.608 9.924h-0.152v-0.923h0.35c0.223 0 0.337 0.078 0.337 0.265 0 0.167-0.103 0.236-0.241 0.252l0.258 0.406h-0.172l-0.238-0.394h-0.143v0.394zM29.777 9.4c0.114 0 0.214-0.011 0.214-0.145 0-0.111-0.109-0.125-0.2-0.125h-0.183v0.27h0.169zM29.772 10.28c-0.479 0-0.82-0.359-0.82-0.834 0-0.502 0.379-0.834 0.82-0.834 0.437 0 0.816 0.332 0.816 0.834s-0.379 0.834-0.816 0.834zM29.772 8.758c-0.361 0-0.642 0.283-0.642 0.689 0 0.379 0.245 0.689 0.642 0.689 0.357 0 0.637-0.281 0.637-0.689 0-0.406-0.281-0.689-0.637-0.689z"></path>
</symbol>
<symbol id="icon-mastercard" viewBox="0 0 32 32">
<path fill="#231f20" style="fill: var(--color6, #231f20)" d="M31.369 28.11v0.064h0.060c0 0 0.001 0 0.001 0 0.011 0 0.022-0.003 0.031-0.008l-0 0c0.007-0.005 0.012-0.014 0.012-0.023 0-0 0-0.001-0-0.001v0c0-0 0-0.001 0-0.001 0-0.009-0.005-0.018-0.012-0.023l-0-0c-0.008-0.005-0.019-0.008-0.030-0.008-0.001 0-0.002 0-0.003 0h-0.060zM31.43 28.065c0.002-0 0.004-0 0.007-0 0.024 0 0.047 0.008 0.065 0.021l-0-0c0.015 0.013 0.025 0.032 0.025 0.053 0 0.001-0 0.002-0 0.004v-0c0 0.001 0 0.002 0 0.003 0 0.019-0.008 0.035-0.020 0.047l-0 0c-0.015 0.013-0.035 0.022-0.057 0.024l-0 0 0.080 0.091h-0.062l-0.074-0.091h-0.024v0.091h-0.052v-0.242h0.112zM31.414 28.391c0.001 0 0.001 0 0.002 0 0.028 0 0.054-0.006 0.078-0.017l-0.001 0c0.025-0.011 0.046-0.025 0.064-0.043v0c0.018-0.018 0.033-0.039 0.043-0.063l0-0.001c0.010-0.023 0.016-0.051 0.016-0.079s-0.006-0.056-0.016-0.081l0 0.001c-0.011-0.025-0.026-0.046-0.043-0.064v0c-0.018-0.018-0.039-0.032-0.063-0.043l-0.001-0.001c-0.023-0.010-0.049-0.015-0.076-0.015-0.001 0-0.002 0-0.002 0h0c-0.001 0-0.001 0-0.002 0-0.028 0-0.055 0.006-0.079 0.016l0.001-0c-0.025 0.011-0.047 0.025-0.065 0.043l0-0c-0.036 0.037-0.059 0.088-0.059 0.144 0 0.029 0.006 0.056 0.017 0.081l-0-0.001c0.010 0.025 0.025 0.046 0.043 0.064l0 0c0.018 0.018 0.040 0.033 0.064 0.043l0.001 0c0.023 0.010 0.050 0.016 0.078 0.016 0.001 0 0.001 0 0.002 0h-0zM31.414 27.928c0 0 0 0 0 0 0.073 0 0.139 0.029 0.188 0.077l-0-0c0.024 0.023 0.043 0.051 0.056 0.081l0.001 0.002c0.013 0.030 0.021 0.065 0.021 0.101s-0.008 0.071-0.021 0.103l0.001-0.002c-0.014 0.032-0.033 0.060-0.057 0.083v0c-0.024 0.023-0.052 0.042-0.082 0.055l-0.002 0.001c-0.030 0.013-0.065 0.021-0.102 0.021-0.001 0-0.001 0-0.002 0h0c-0.001 0-0.001 0-0.002 0-0.037 0-0.073-0.008-0.105-0.021l0.002 0.001c-0.033-0.014-0.061-0.033-0.085-0.056l0 0c-0.023-0.024-0.042-0.052-0.055-0.084l-0.001-0.002c-0.013-0.030-0.021-0.065-0.021-0.101s0.008-0.071 0.021-0.103l-0.001 0.002c0.014-0.032 0.033-0.060 0.057-0.083l0-0c0.024-0.024 0.052-0.043 0.083-0.055l0.002-0.001c0.030-0.013 0.066-0.021 0.103-0.021 0.001 0 0.001 0 0.002 0h-0zM6.915 26.994c0-0.462 0.302-0.841 0.797-0.841 0.472 0 0.791 0.363 0.791 0.841s-0.319 0.841-0.791 0.841c-0.494 0-0.797-0.379-0.797-0.841zM9.041 26.994v-1.314h-0.571v0.32c-0.181-0.236-0.456-0.385-0.829-0.385-0.736 0-1.314 0.577-1.314 1.379s0.577 1.379 1.314 1.379c0.373 0 0.648-0.148 0.829-0.385v0.319h0.57v-1.314zM28.335 26.994c0-0.462 0.302-0.841 0.797-0.841 0.473 0 0.791 0.363 0.791 0.841s-0.318 0.841-0.791 0.841c-0.494 0-0.797-0.379-0.797-0.841zM30.462 26.994v-2.368h-0.572v1.374c-0.181-0.236-0.456-0.385-0.829-0.385-0.736 0-1.314 0.577-1.314 1.379s0.577 1.379 1.314 1.379c0.374 0 0.648-0.148 0.829-0.385v0.319h0.572v-1.314zM16.128 26.126c0.368 0 0.604 0.231 0.665 0.637h-1.363c0.061-0.379 0.291-0.637 0.698-0.637zM16.14 25.614c-0.77 0-1.308 0.56-1.308 1.379 0 0.835 0.56 1.379 1.346 1.379 0.396 0 0.758-0.099 1.076-0.368l-0.28-0.423c-0.22 0.176-0.5 0.275-0.764 0.275-0.368 0-0.703-0.17-0.785-0.643h1.95c0.006-0.071 0.011-0.143 0.011-0.22-0.006-0.819-0.512-1.379-1.247-1.379zM23.034 26.993c0-0.462 0.302-0.841 0.797-0.841 0.472 0 0.791 0.363 0.791 0.841s-0.319 0.841-0.791 0.841c-0.494 0-0.797-0.379-0.797-0.841zM25.16 26.993v-1.313h-0.571v0.32c-0.182-0.236-0.456-0.385-0.829-0.385-0.736 0-1.314 0.577-1.314 1.379s0.577 1.379 1.314 1.379c0.374 0 0.648-0.148 0.829-0.385v0.319h0.571v-1.314zM19.809 26.993c0 0.797 0.555 1.379 1.401 1.379 0.396 0 0.659-0.088 0.944-0.313l-0.274-0.462c-0.214 0.154-0.44 0.236-0.688 0.236-0.456-0.006-0.791-0.335-0.791-0.841s0.335-0.835 0.791-0.841c0.248 0 0.473 0.082 0.688 0.236l0.274-0.462c-0.285-0.225-0.549-0.313-0.944-0.313-0.846 0-1.401 0.582-1.401 1.379zM27.17 25.614c-0.329 0-0.544 0.154-0.692 0.385v-0.318h-0.566v2.626h0.572v-1.472c0-0.435 0.187-0.676 0.56-0.676 0.004-0 0.009-0 0.013-0 0.124 0 0.242 0.024 0.35 0.068l-0.006-0.002 0.176-0.538c-0.126-0.050-0.291-0.072-0.407-0.072zM11.864 25.889c-0.275-0.181-0.653-0.275-1.071-0.275-0.665 0-1.094 0.319-1.094 0.841 0 0.428 0.319 0.692 0.906 0.775l0.27 0.038c0.313 0.044 0.461 0.126 0.461 0.275 0 0.203-0.208 0.319-0.599 0.319-0.396 0-0.681-0.126-0.873-0.275l-0.268 0.445c0.313 0.231 0.709 0.341 1.137 0.341 0.758 0 1.198-0.357 1.198-0.857 0-0.462-0.346-0.703-0.917-0.785l-0.269-0.039c-0.247-0.032-0.445-0.082-0.445-0.258 0-0.192 0.187-0.308 0.5-0.308 0.335 0 0.66 0.126 0.819 0.225l0.247-0.462zM19.232 25.615c-0.329 0-0.544 0.154-0.692 0.385v-0.319h-0.566v2.626h0.571v-1.472c0-0.435 0.187-0.676 0.56-0.676 0.004-0 0.009-0 0.013-0 0.124 0 0.242 0.024 0.35 0.068l-0.006-0.002 0.176-0.538c-0.126-0.050-0.291-0.072-0.407-0.072zM14.359 25.68h-0.934v-0.797h-0.577v0.797h-0.533v0.522h0.533v1.198c0 0.609 0.236 0.972 0.912 0.972 0.248 0 0.533-0.077 0.714-0.203l-0.165-0.489c-0.17 0.099-0.357 0.148-0.506 0.148-0.285 0-0.379-0.176-0.379-0.44v-1.187h0.934zM5.822 28.307v-1.648c0-0.621-0.396-1.038-1.033-1.044-0.335-0.006-0.681 0.099-0.923 0.467-0.181-0.291-0.467-0.467-0.868-0.467-0.28 0-0.555 0.082-0.769 0.39v-0.325h-0.572v2.626h0.576v-1.456c0-0.456 0.253-0.698 0.643-0.698 0.379 0 0.571 0.247 0.571 0.692v1.461h0.577v-1.456c0-0.456 0.264-0.698 0.643-0.698 0.39 0 0.576 0.247 0.576 0.692v1.461z"></path>
<path fill="#f79410" style="fill: var(--color7, #f79410)" d="M31.695 19.572v-0.384h-0.1l-0.116 0.264-0.115-0.264h-0.1v0.384h0.071v-0.289l0.108 0.25h0.074l0.108-0.25v0.29h0.070zM31.061 19.572v-0.318h0.128v-0.065h-0.327v0.065h0.128v0.318h0.070z"></path>
<path fill="#ff5f00" style="fill: var(--color8, #ff5f00)" d="M20.329 21.218h-8.654v-15.552h8.654z"></path>
<path fill="#eb001b" style="fill: var(--color9, #eb001b)" d="M12.224 13.443c0-3.155 1.477-5.965 3.777-7.776-1.66-1.318-3.786-2.115-6.097-2.115-0.005 0-0.010 0-0.015 0h0.001c-5.462 0-9.889 4.428-9.889 9.891s4.428 9.891 9.889 9.891c0.004 0 0.010 0 0.015 0 2.312 0 4.437-0.797 6.118-2.13l-0.020 0.016c-2.3-1.811-3.777-4.621-3.777-7.776z"></path>
<path fill="#f79e1b" style="fill: var(--color10, #f79e1b)" d="M32.004 13.443c0 5.463-4.428 9.891-9.889 9.891-0.004 0-0.009 0-0.014 0-2.312 0-4.438-0.797-6.119-2.13l0.020 0.016c2.301-1.811 3.778-4.621 3.778-7.776s-1.477-5.965-3.778-7.776c1.66-1.318 3.786-2.115 6.098-2.115 0.005 0 0.010 0 0.015 0h-0.001c5.462 0 9.889 4.428 9.889 9.891z"></path>
</symbol>
<symbol id="icon-mir" viewBox="0 0 32 32">
<path fill="#4db45e" style="fill: var(--color11, #4db45e)" d="M8.623 11.471v0.004c-0.004 0-1.25-0.004-1.583 1.187-0.305 1.092-1.163 4.106-1.187 4.189h-0.237s-0.878-3.081-1.187-4.193c-0.332-1.191-1.583-1.187-1.583-1.187h-2.846v9.058h2.848v-5.38h0.237l1.662 5.38h1.977l1.662-5.376h0.237v5.376h2.848v-9.058h-2.848zM19.026 11.471s-0.835 0.075-1.227 0.95l-2.017 4.43h-0.237v-5.38h-2.848v9.058h2.689s0.874-0.079 1.266-0.95l1.977-4.43h0.237v5.38h2.848v-9.058h-2.689zM22.981 15.585v4.945h2.848v-2.887h3.085c1.345 0 2.484-0.859 2.907-2.056l-8.84-0.001z"></path>
<path fill="#000" style="fill: var(--color12, #000)" d="M28.915 11.471h-6.334c0.317 1.725 1.61 3.109 3.283 3.56 0.357 0.101 0.767 0.158 1.19 0.158 0 0 0.001 0 0.001 0h4.881c0.044-0.206 0.063-0.415 0.063-0.633 0-1.704-1.381-3.085-3.085-3.085z"></path>
</symbol>
</defs>
</svg>
